<svg width="44" height="34" viewBox="0 0 44 34" fill="none" xmlns="http://www.w3.org/2000/svg">
<path d="M23.564 16.992C23.564 22.3587 22.5367 26.4833 20.482 29.366C18.458 32.218 15.652 33.644 12.064 33.644C8.476 33.644 5.65467 32.218 3.6 29.366C1.576 26.4833 0.564 22.3587 0.564 16.992C0.564 14.324 0.824667 11.9627 1.346 9.908C1.898 7.85333 2.68 6.12067 3.692 4.71C4.704 3.29933 5.91533 2.226 7.326 1.49C8.73667 0.753997 10.316 0.385998 12.064 0.385998C15.652 0.385998 18.458 1.82733 20.482 4.71C22.5367 7.562 23.564 11.656 23.564 16.992ZM16.572 16.992C16.572 15.3973 16.4953 13.956 16.342 12.668C16.1887 11.3493 15.9433 10.2147 15.606 9.264C15.2687 8.31333 14.8087 7.57733 14.226 7.056C13.6433 6.53467 12.9227 6.274 12.064 6.274C11.2053 6.274 10.4847 6.53467 9.902 7.056C9.35 7.57733 8.89 8.31333 8.522 9.264C8.18467 10.2147 7.93933 11.3493 7.786 12.668C7.63267 13.956 7.556 15.3973 7.556 16.992C7.556 18.5867 7.63267 20.0433 7.786 21.362C7.93933 22.6807 8.18467 23.8153 8.522 24.766C8.89 25.7167 9.35 26.4527 9.902 26.974C10.4847 27.4953 11.2053 27.756 12.064 27.756C12.9227 27.756 13.6433 27.4953 14.226 26.974C14.8087 26.4527 15.2687 25.7167 15.606 24.766C15.9433 23.8153 16.1887 22.6807 16.342 21.362C16.4953 20.0433 16.572 18.5867 16.572 16.992ZM28.3645 7.746C29.2539 7.378 30.1739 6.964 31.1245 6.504C32.1059 6.01333 33.0565 5.492 33.9765 4.94C34.8965 4.35733 35.7705 3.75933 36.5985 3.146C37.4572 2.502 38.2239 1.82733 38.8985 1.122H43.6825V33H36.8285V10.046C35.9085 10.6593 34.8812 11.2267 33.7465 11.748C32.6119 12.2387 31.5079 12.668 30.4345 13.036L28.3645 7.746Z" fill="#D7DADD"/>
</svg>
