<svg width="49" height="34" viewBox="0 0 49 34" fill="none" xmlns="http://www.w3.org/2000/svg">
<path d="M23.564 16.992C23.564 22.3587 22.5367 26.4833 20.482 29.366C18.458 32.218 15.652 33.644 12.064 33.644C8.476 33.644 5.65467 32.218 3.6 29.366C1.576 26.4833 0.564 22.3587 0.564 16.992C0.564 14.324 0.824667 11.9627 1.346 9.908C1.898 7.85333 2.68 6.12067 3.692 4.71C4.704 3.29933 5.91533 2.226 7.326 1.49C8.73667 0.753997 10.316 0.385998 12.064 0.385998C15.652 0.385998 18.458 1.82733 20.482 4.71C22.5367 7.562 23.564 11.656 23.564 16.992ZM16.572 16.992C16.572 15.3973 16.4953 13.956 16.342 12.668C16.1887 11.3493 15.9433 10.2147 15.606 9.264C15.2687 8.31333 14.8087 7.57733 14.226 7.056C13.6433 6.53467 12.9227 6.274 12.064 6.274C11.2053 6.274 10.4847 6.53467 9.902 7.056C9.35 7.57733 8.89 8.31333 8.522 9.264C8.18467 10.2147 7.93933 11.3493 7.786 12.668C7.63267 13.956 7.556 15.3973 7.556 16.992C7.556 18.5867 7.63267 20.0433 7.786 21.362C7.93933 22.6807 8.18467 23.8153 8.522 24.766C8.89 25.7167 9.35 26.4527 9.902 26.974C10.4847 27.4953 11.2053 27.756 12.064 27.756C12.9227 27.756 13.6433 27.4953 14.226 26.974C14.8087 26.4527 15.2687 25.7167 15.606 24.766C15.9433 23.8153 16.1887 22.6807 16.342 21.362C16.4953 20.0433 16.572 18.5867 16.572 16.992ZM47.9605 9.494C47.9605 10.6593 47.7305 11.7787 47.2705 12.852C46.8105 13.9253 46.2125 14.968 45.4765 15.98C44.7405 16.9613 43.9125 17.912 42.9925 18.832C42.0725 19.752 41.1679 20.626 40.2785 21.454C39.8185 21.8833 39.3125 22.374 38.7605 22.926C38.2392 23.4473 37.7332 23.984 37.2425 24.536C36.7519 25.088 36.3072 25.6093 35.9085 26.1C35.5405 26.56 35.3105 26.9433 35.2185 27.25H48.9265V33H27.6745C27.6132 32.6627 27.5825 32.2333 27.5825 31.712C27.5825 31.1907 27.5825 30.8227 27.5825 30.608C27.5825 29.136 27.8125 27.7867 28.2725 26.56C28.7632 25.3333 29.3919 24.1987 30.1585 23.156C30.9252 22.0827 31.7839 21.086 32.7345 20.166C33.7159 19.246 34.6819 18.326 35.6325 17.406C36.3685 16.7007 37.0585 16.0413 37.7025 15.428C38.3465 14.784 38.9139 14.1707 39.4045 13.588C39.8952 12.9747 40.2785 12.3767 40.5545 11.794C40.8305 11.1807 40.9685 10.5673 40.9685 9.954C40.9685 8.60467 40.5852 7.654 39.8185 7.102C39.0519 6.55 38.1012 6.274 36.9665 6.274C36.1385 6.274 35.3565 6.412 34.6205 6.688C33.9152 6.93333 33.2559 7.24 32.6425 7.608C32.0599 7.94533 31.5539 8.298 31.1245 8.666C30.6952 9.00333 30.3732 9.27933 30.1585 9.494L26.7545 4.71C28.1039 3.45267 29.6679 2.42533 31.4465 1.628C33.2559 0.799998 35.1879 0.385998 37.2425 0.385998C39.1132 0.385998 40.7232 0.600664 42.0725 1.03C43.4219 1.45933 44.5259 2.07266 45.3845 2.87C46.2739 3.63666 46.9179 4.58733 47.3165 5.722C47.7459 6.826 47.9605 8.08333 47.9605 9.494Z" fill="#D7DADD"/>
</svg>
