<svg width="49" height="34" viewBox="0 0 49 34" fill="none" xmlns="http://www.w3.org/2000/svg">
<path d="M23.564 16.992C23.564 22.3587 22.5367 26.4833 20.482 29.366C18.458 32.218 15.652 33.644 12.064 33.644C8.476 33.644 5.65467 32.218 3.6 29.366C1.576 26.4833 0.564 22.3587 0.564 16.992C0.564 14.324 0.824667 11.9627 1.346 9.908C1.898 7.85333 2.68 6.12067 3.692 4.71C4.704 3.29933 5.91533 2.226 7.326 1.49C8.73667 0.753997 10.316 0.385998 12.064 0.385998C15.652 0.385998 18.458 1.82733 20.482 4.71C22.5367 7.562 23.564 11.656 23.564 16.992ZM16.572 16.992C16.572 15.3973 16.4953 13.956 16.342 12.668C16.1887 11.3493 15.9433 10.2147 15.606 9.264C15.2687 8.31333 14.8087 7.57733 14.226 7.056C13.6433 6.53467 12.9227 6.274 12.064 6.274C11.2053 6.274 10.4847 6.53467 9.902 7.056C9.35 7.57733 8.89 8.31333 8.522 9.264C8.18467 10.2147 7.93933 11.3493 7.786 12.668C7.63267 13.956 7.556 15.3973 7.556 16.992C7.556 18.5867 7.63267 20.0433 7.786 21.362C7.93933 22.6807 8.18467 23.8153 8.522 24.766C8.89 25.7167 9.35 26.4527 9.902 26.974C10.4847 27.4953 11.2053 27.756 12.064 27.756C12.9227 27.756 13.6433 27.4953 14.226 26.974C14.8087 26.4527 15.2687 25.7167 15.606 24.766C15.9433 23.8153 16.1887 22.6807 16.342 21.362C16.4953 20.0433 16.572 18.5867 16.572 16.992ZM35.6325 33.69C34.8045 33.69 33.9305 33.6287 33.0105 33.506C32.0905 33.414 31.2012 33.276 30.3425 33.092C29.4839 32.908 28.7019 32.7087 27.9965 32.494C27.2912 32.2793 26.7392 32.08 26.3405 31.896L27.6745 26.192C28.4719 26.5293 29.4839 26.8973 30.7105 27.296C31.9679 27.664 33.5165 27.848 35.3565 27.848C37.4725 27.848 39.0212 27.4493 40.0025 26.652C40.9839 25.8547 41.4745 24.7813 41.4745 23.432C41.4745 22.604 41.2905 21.914 40.9225 21.362C40.5852 20.7793 40.1099 20.3193 39.4965 19.982C38.8832 19.614 38.1472 19.3687 37.2885 19.246C36.4605 19.0927 35.5712 19.016 34.6205 19.016H31.9525V13.496H34.9885C35.6632 13.496 36.3072 13.4347 36.9205 13.312C37.5645 13.1893 38.1319 12.99 38.6225 12.714C39.1132 12.4073 39.4965 12.0087 39.7725 11.518C40.0792 10.9967 40.2325 10.3527 40.2325 9.586C40.2325 9.00333 40.1099 8.49733 39.8645 8.068C39.6192 7.63866 39.2972 7.286 38.8985 7.01C38.5305 6.734 38.0859 6.53467 37.5645 6.412C37.0739 6.25867 36.5679 6.182 36.0465 6.182C34.7279 6.182 33.5012 6.38133 32.3665 6.78C31.2625 7.17866 30.2505 7.66933 29.3305 8.252L26.8925 3.238C27.3832 2.93133 27.9505 2.60933 28.5945 2.272C29.2692 1.93467 30.0052 1.628 30.8025 1.352C31.5999 1.076 32.4432 0.845999 33.3325 0.662C34.2525 0.477998 35.2185 0.385998 36.2305 0.385998C38.1012 0.385998 39.7112 0.615998 41.0605 1.076C42.4405 1.50533 43.5752 2.134 44.4645 2.962C45.3539 3.75933 46.0132 4.71 46.4425 5.814C46.8719 6.88733 47.0865 8.068 47.0865 9.356C47.0865 10.6133 46.7339 11.84 46.0285 13.036C45.3232 14.2013 44.3725 15.0907 43.1765 15.704C44.8325 16.3787 46.1052 17.3907 46.9945 18.74C47.9145 20.0587 48.3745 21.6533 48.3745 23.524C48.3745 24.996 48.1292 26.3607 47.6385 27.618C47.1479 28.8447 46.3812 29.918 45.3385 30.838C44.2959 31.7273 42.9619 32.4327 41.3365 32.954C39.7419 33.4447 37.8405 33.69 35.6325 33.69Z" fill="#D7DADD"/>
</svg>
