<svg width="32" height="32" viewBox="0 0 32 32" fill="none" xmlns="http://www.w3.org/2000/svg">
<path d="M23.4158 1.34009L19.7128 1.33398C15.5526 1.33398 12.8641 4.16744 12.8641 8.55296V11.8814H9.14086C8.81913 11.8814 8.55859 12.1493 8.55859 12.4798V17.3023C8.55859 17.6328 8.81942 17.9004 9.14086 17.9004H12.8641V30.0692C12.8641 30.3997 13.1246 30.6673 13.4463 30.6673H18.3041C18.6258 30.6673 18.8863 30.3994 18.8863 30.0692V17.9004H23.2397C23.5614 17.9004 23.8219 17.6328 23.8219 17.3023L23.8237 12.4798C23.8237 12.3211 23.7622 12.1692 23.6532 12.0569C23.5442 11.9446 23.3956 11.8814 23.2411 11.8814H18.8863V9.05983C18.8863 7.70368 19.2009 7.01523 20.9207 7.01523L23.4152 7.01432C23.7367 7.01432 23.9972 6.74638 23.9972 6.41619V1.93821C23.9972 1.60833 23.737 1.3407 23.4158 1.34009Z" fill="#787A80"/>
</svg>
