<svg width="28" height="22" viewBox="0 0 28 22" fill="none" xmlns="http://www.w3.org/2000/svg">
<path d="M28 2.69579C26.9694 3.13304 25.8637 3.42958 24.7019 3.56197C25.8881 2.88176 26.7962 1.80286 27.2266 0.52121C26.1138 1.15113 24.8855 1.60852 23.5768 1.85648C22.5287 0.785942 21.038 0.119141 19.3845 0.119141C16.2124 0.119141 13.6404 2.58189 13.6404 5.61761C13.6404 6.04815 13.6911 6.46867 13.7891 6.87078C9.01601 6.64123 4.78357 4.45157 1.95085 1.12431C1.45568 1.9352 1.17399 2.88005 1.17399 3.88864C1.17399 5.79687 2.18881 7.48059 3.72854 8.46565C2.78719 8.43551 1.90185 8.18756 1.12677 7.77542V7.84411C1.12677 10.5079 3.10741 12.7311 5.73365 13.237C5.25248 13.361 4.74509 13.4297 4.22018 13.4297C3.84927 13.4297 3.49058 13.3945 3.13889 13.3275C3.87023 15.5138 5.99087 17.1037 8.50341 17.1473C6.53851 18.6216 4.06097 19.4978 1.36999 19.4978C0.906341 19.4978 0.449648 19.471 0 19.4224C2.54229 20.9855 5.56048 21.8969 8.80437 21.8969C19.3706 21.8969 25.1463 13.5168 25.1463 6.24923L25.1271 5.53722C26.2556 4.76651 27.2319 3.79818 28 2.69579Z" fill="#787A80"/>
</svg>
