<svg width="32" height="32" viewBox="0 0 32 32" fill="none" xmlns="http://www.w3.org/2000/svg">
<path d="M29.3346 15.6559C29.3346 22.8302 23.4742 28.6459 16.2437 28.6459C13.9483 28.6459 11.7918 28.0592 9.91567 27.0296L2.66797 29.3327L5.03093 22.3632C3.83893 20.4059 3.15241 18.1102 3.15241 15.6559C3.15241 8.48172 9.01345 2.66602 16.2437 2.66602C23.4748 2.66602 29.3346 8.48172 29.3346 15.6559ZM16.2437 4.73476C10.1743 4.73476 5.23745 9.63402 5.23745 15.6559C5.23745 18.0456 6.01641 20.2586 7.33404 22.0589L5.95893 26.1149L10.1886 24.7706C11.9263 25.9116 14.0081 26.5771 16.244 26.5771C22.3124 26.5771 27.2502 21.6785 27.2502 15.6565C27.2502 9.63461 22.3127 4.73476 16.2437 4.73476ZM22.8543 18.6476C22.7734 18.5152 22.5598 18.4352 22.2392 18.2761C21.918 18.117 20.34 17.3463 20.0466 17.2405C19.7524 17.1345 19.5379 17.0811 19.3243 17.3996C19.1106 17.7185 18.4955 18.4352 18.308 18.6476C18.1207 18.8607 17.9337 18.8873 17.6126 18.7279C17.292 18.5688 16.2582 18.2322 15.0324 17.1478C14.0786 16.3039 13.4345 15.2622 13.2472 14.9431C13.0603 14.6245 13.2277 14.4524 13.388 14.2939C13.5326 14.1511 13.7092 13.922 13.8695 13.7362C14.0303 13.5502 14.0837 13.4177 14.19 13.205C14.2976 12.9925 14.244 12.8068 14.1634 12.6471C14.0834 12.4879 13.441 10.9211 13.1737 10.2835C12.9065 9.64646 12.6395 9.75253 12.452 9.75253C12.265 9.75253 12.0508 9.72587 11.8369 9.72587C11.6229 9.72587 11.2751 9.80557 10.9809 10.1241C10.6869 10.4429 9.85819 11.2133 9.85819 12.7798C9.85819 14.3466 11.0075 15.8604 11.1684 16.0725C11.3287 16.2847 13.3877 19.6044 16.6499 20.8793C19.9124 22.1537 19.9124 21.7285 20.5009 21.6752C21.0887 21.6222 22.3989 20.9051 22.6674 20.162C22.934 19.4177 22.934 18.7804 22.8543 18.6476Z" fill="#787A80"/>
</svg>
