<svg width="32" height="32" viewBox="0 0 32 32" fill="none" xmlns="http://www.w3.org/2000/svg">
<path fill-rule="evenodd" clip-rule="evenodd" d="M28.5204 5.48608C29.891 5.85522 30.9718 6.93578 31.3407 8.30662C32.0262 10.8105 31.9999 16.0297 31.9999 16.0297C31.9999 16.0297 31.9999 21.2223 31.3409 23.7265C30.9718 25.0971 29.8912 26.1779 28.5204 26.5468C26.0162 27.2059 15.9999 27.2059 15.9999 27.2059C15.9999 27.2059 6.00974 27.2059 3.47948 26.5206C2.10863 26.1515 1.02807 25.0707 0.658933 23.7001C0 21.2223 0 16.0034 0 16.0034C0 16.0034 0 10.8105 0.658933 8.30662C1.02783 6.93602 2.135 5.82885 3.47923 5.45996C5.98337 4.80078 15.9997 4.80078 15.9997 4.80078C15.9997 4.80078 26.0162 4.80078 28.5204 5.48608ZM21.1397 16.0033L12.8104 20.8007V11.206L21.1397 16.0033Z" fill="#FF5A30"/>
</svg>
